<svg width="681" height="681" viewBox="0 0 681 681" fill="none" xmlns="http://www.w3.org/2000/svg">
<path d="M122 541H235.24V534.924H213.96C194.96 534.924 183.56 526.569 183.56 512.138C183.56 507.58 184.32 502.264 186.6 496.187L204.08 443.779L220.04 406.562L293 405.043H428.28L467.8 504.542C469.32 509.859 470.08 514.416 470.08 518.214C470.08 533.405 455.64 534.924 449.56 534.924H435.12V541H559V534.924H554.44C533.16 534.924 529.36 526.569 517.2 496.187L355.32 83H342.4C341.64 92.1144 335.56 105.786 331 117.179L191.16 439.222L163.04 496.187C144.8 532.645 127.32 534.924 122 534.924V541ZM226.12 392.131L331.76 144.522H335.56C335.56 158.194 337.08 168.828 341.64 181.74L423.72 393.65H296.04L226.12 392.131Z" fill="white"/>
<circle cx="340.5" cy="340.5" r="335.5" stroke="white" stroke-width="10"/>
</svg>
