<svg width="691" height="588" viewBox="0 0 691 588" fill="none" xmlns="http://www.w3.org/2000/svg">
<path d="M532 587.239C532 587.239 515.819 571.367 507.884 555.496C507.884 555.496 499.948 539.624 492.012 523.753L333.299 126.969L317.427 79.355L293.62 7.93384H277.749C277.749 15.8695 269.813 39.6766 261.877 47.6122L87.2925 452.332L47.6141 523.753C31.7427 571.367 7.93568 571.367 0 571.367V579.303H142.842V571.367H119.035C87.2925 571.367 79.3568 563.432 79.3568 547.56C79.3568 539.624 79.3568 531.689 79.3568 523.753L103.164 460.268L126.971 412.654H222.199H388.848L436.462 539.625C436.462 547.56 436.462 555.496 436.462 555.496C436.462 571.367 420.591 579.303 412.655 579.303H388.848V587.239H532ZM222.199 396.782H126.971L261.877 87.2906H269.813C269.813 103.162 269.813 119.033 277.749 134.905L380.913 396.782H222.199Z" fill="white"/>
<path d="M666.535 7.93568C658.599 7.93568 642.728 15.8714 634.792 15.8714C595.113 15.8714 547.499 0 507.821 0C428.464 0 364.979 31.7427 309.429 79.3568C309.429 79.3568 309.429 87.2925 301.493 87.2925L325.3 134.907C325.3 134.907 325.3 126.971 333.236 126.971C364.979 55.5498 428.464 15.8714 499.885 15.8714C579.242 15.8714 658.599 71.4211 658.599 142.842V214.263H674.47L666.535 7.93568ZM682.406 460.269C650.663 523.755 587.178 563.433 507.821 563.433H499.885L507.821 587.24H523.692H531.628C603.049 579.305 658.599 539.626 690.342 468.205L682.406 460.269Z" fill="white"/>
</svg>
